<?xml version="1.0" encoding="UTF-8"?>
<!DOCTYPE svg PUBLIC "-//W3C//DTD SVG 1.1//EN" "http://www.w3.org/Graphics/SVG/1.1/DTD/svg11.dtd">
<!-- Creator: CorelDRAW 2019 (64-Bit) -->
<svg xmlns="http://www.w3.org/2000/svg" xml:space="preserve" width="86.5259mm" height="10.5858mm" version="1.1" style="shape-rendering:geometricPrecision; text-rendering:geometricPrecision; image-rendering:optimizeQuality; fill-rule:evenodd; clip-rule:evenodd"
viewBox="0 0 8462.87 1035.37"
 xmlns:xlink="http://www.w3.org/1999/xlink">
 <defs>
  <style type="text/css">
   <![CDATA[
    .fil0 {fill:white;fill-rule:nonzero}
   ]]>
  </style>
 </defs>
 <g id="Слой_x0020_1">
  <metadata id="CorelCorpID_0Corel-Layer"/>
  <path class="fil0" d="M357.3 511.31c49.85,18.55 64.92,30.14 57.97,84.64 -10.44,69.56 -41.73,82.31 -147.43,82.31 -34.79,0 -102.03,-2.32 -249.28,-5.8l-18.55 126.38c114.79,25.51 219.14,31.31 274.79,31.31 212.37,0 292.17,-44.06 315.36,-223.77 15.07,-119.41 -11.59,-187.82 -137.77,-237.68l-143.78 -55.65c-58.17,-22.03 -72.07,-33.62 -63.96,-88.11 11.59,-75.36 45.22,-77.68 130.04,-76.52 85.8,0 178.36,1.16 247.92,3.48l17.4 -119.42c-83.48,-24.34 -178.36,-32.46 -260.69,-32.46 -186.86,0 -286.57,34.78 -310.92,214.49 -13.91,108.99 16.24,185.51 136.81,235.36l152.08 61.45z"/>
  <path id="1" class="fil0" d="M1296.44 243.48l-169.28 0 -48.7 353.62c-73.04,61.45 -114.79,89.28 -166.96,89.28 -37.1,0 -49.85,-16.24 -42.9,-63.77l54.49 -379.13 -171.4 0 -58.94 425.51c-15.07,99.7 34.58,161.16 145.7,161.16 83.48,0 160,-39.42 246.95,-122.89l0 107.82 132.18 0 78.84 -571.6z"/>
  <path id="2" class="fil0" d="M1571.22 243.48l-135.65 0 -111.3 791.89 171.59 0 18.55 -112.47c5.79,-38.25 8.11,-73.04 8.11,-107.82 59.13,10.44 124.06,15.07 170.44,15.07 137.98,0 236.14,-37.1 269.76,-289.85 31.3,-231.89 -24.35,-310.73 -153.82,-310.73 -88.11,0 -179.71,62.62 -240,124.06l2.32 -110.14zm-27.83 467.25l33.63 -249.27c62.61,-57.97 128.69,-93.91 169.28,-93.91 51.02,0 63.77,25.51 42.9,170.43 -20.87,151.89 -40.58,172.76 -157.69,172.76l-88.11 0z"/>
  <path id="3" class="fil0" d="M2568.52 679.43c-68.41,8.11 -164.64,12.75 -220.49,12.75 -71.89,0 -112.47,-15.07 -114.79,-96.82l169.47 -12.75c147.25,-10.44 217.97,-47.53 234.21,-158.64 17.39,-121.36 -33.63,-196.72 -244.84,-196.72 -209.86,0 -303.77,60.29 -331.4,289.28 -24.34,206.96 43.87,312.48 267.64,312.48 77.87,0 179.9,-10.44 251.79,-40.58l-11.59 -108.99zm-324.84 -184.93c19.71,-115.56 48.7,-142.03 136.81,-142.03 72.07,-1.16 95.26,2.32 90.63,55.46 -6.95,56.62 -35.94,69.37 -94.11,73.82l-133.33 12.75z"/>
  <path id="4" class="fil0" d="M3183.98 227.25l-34.78 0c-74.21,0 -157.69,42.9 -243.48,124.06l0 -107.82 -133.33 0 -80.01 571.6 171.6 0 48.69 -358.26c86.96,-45.23 139.13,-70.73 191.31,-70.73l41.73 0 38.26 -158.84z"/>
  <polygon id="5" class="fil0" points="3823.99,158.84 3843.7,15.07 3190.94,15.07 3171.23,158.84 3408.91,158.84 3316.16,815.08 3493.55,815.08 3585.15,158.84 "/>
  <path id="6" class="fil0" d="M4233.47 679.43c-68.41,8.11 -164.64,12.75 -220.49,12.75 -71.89,0 -112.47,-15.07 -114.79,-96.82l169.47 -12.75c147.25,-10.44 217.97,-47.53 234.21,-158.64 17.39,-121.36 -33.63,-196.72 -244.84,-196.72 -209.86,0 -303.77,60.29 -331.4,289.28 -24.34,206.96 43.87,312.48 267.64,312.48 77.87,0 179.9,-10.44 251.79,-40.58l-11.59 -108.99zm-324.84 -184.93c19.71,-115.56 48.7,-142.03 136.81,-142.03 72.07,-1.16 95.26,2.32 90.63,55.46 -6.95,56.62 -35.94,69.37 -94.11,73.82l-133.33 12.75z"/>
  <path id="7" class="fil0" d="M4839.46 679.43c-64.92,9.27 -139.13,10.43 -180.88,10.43 -98.55,0 -124.24,-22.03 -106.66,-159.99 16.23,-133.34 56.81,-163.49 159.99,-163.49 41.74,0 105.51,1.16 172.76,2.32l23.19 -104.34c-60.29,-26.67 -149.57,-37.11 -219.13,-37.11 -205.42,0 -285.42,81.16 -315.57,294.5 -31.3,220.29 51.02,307.25 255.27,307.25 73.05,0 156.53,-9.28 222.61,-37.11l-11.59 -112.46z"/>
  <path id="8" class="fil0" d="M5230.39 3.48l-171.6 0 -113.62 811.6 171.6 0 47.53 -351.3c77.68,-60.29 128.69,-91.6 183.18,-91.6 34.79,0 41.74,12.75 35.94,63.77l-53.33 379.13 170.44 0 60.29 -425.51c15.07,-105.5 -41.73,-162.32 -144.93,-162.32 -74.2,0 -154.2,38.26 -243.47,118.26 11.59,-39.42 23.18,-90.43 30.14,-140.29l27.83 -201.74z"/>
  <path id="9" class="fil0" d="M5646.81 815.08l176.23 0 41.74 -297.97c46.38,6.95 98.55,10.44 149.57,10.44 195.94,0 271.31,-45.23 300.29,-255.08 27.83,-199.42 -48.7,-267.83 -260.87,-267.83 -135.65,0 -199.42,1.16 -294.49,10.44l-112.47 800.01zm235.36 -423.19l35.94 -250.44 131.01 -1.15c81.16,0 105.5,24.34 91.6,119.41 -16.24,108.99 -42.9,132.18 -137.98,132.18l-120.58 0z"/>
  <path id="10" class="fil0" d="M6833.87 227.25l-34.78 0c-74.21,0 -157.69,42.9 -243.48,124.06l0 -107.82 -133.33 0 -80.01 571.6 171.6 0 48.69 -358.26c86.96,-45.23 139.13,-70.73 191.31,-70.73l41.73 0 38.26 -158.84z"/>
  <path id="11" class="fil0" d="M7172.24 227.25c-210.82,0 -296.24,80.01 -326.38,295.65 -31.3,222.61 56.62,307.25 262.61,307.25 207.54,0 294.11,-77.68 324.25,-293.33 31.31,-223.77 -51.97,-309.57 -260.48,-309.57zm-1.16 128.69c86.96,0 105.51,33.63 85.81,166.96 -20.87,141.46 -53.33,178.56 -144.93,178.56 -90.43,0 -106.67,-32.46 -88.11,-164.64 20.86,-148.4 54.49,-180.88 147.24,-180.88z"/>
  <path id="12" class="fil0" d="M7722 243.48l-133.33 0 -80.01 571.6 170.44 0 49.85 -360.59c71.89,-62.61 108.99,-82.31 149.57,-82.31 38.26,0 47.53,17.39 40.58,63.77l-52.17 379.13 164.64 0 49.85 -355.94c75.36,-68.41 111.3,-86.96 149.57,-86.96 31.31,0 48.7,12.75 41.73,63.77l-53.32 379.13 170.43 0 59.13 -425.51c13.91,-99.71 -34.78,-162.32 -141.45,-162.32 -75.36,0 -139.13,31.31 -215.66,106.67 -8.12,-67.24 -56.82,-106.67 -140.29,-106.67 -80,0 -147.24,35.94 -229.56,119.42l0 -103.19z"/>
 </g>
</svg>
