<?xml version="1.0" encoding="UTF-8"?>
<!DOCTYPE svg PUBLIC "-//W3C//DTD SVG 1.1//EN" "http://www.w3.org/Graphics/SVG/1.1/DTD/svg11.dtd">
<!-- Creator: CorelDRAW 2019 (64-Bit) -->
<svg xmlns="http://www.w3.org/2000/svg" xml:space="preserve" width="73.5475mm" height="8.452mm" version="1.1" style="shape-rendering:geometricPrecision; text-rendering:geometricPrecision; image-rendering:optimizeQuality; fill-rule:evenodd; clip-rule:evenodd"
viewBox="0 0 9273.22 1065.67"
 xmlns:xlink="http://www.w3.org/1999/xlink">
 <defs>
  <style type="text/css">
   <![CDATA[
    .fil0 {fill:white;fill-rule:nonzero}
   ]]>
  </style>
 </defs>
 <g id="Слой_x0020_1">
  <metadata id="CorelCorpID_0Corel-Layer"/>
  <path class="fil0" d="M953.58 14.94l-228.68 0 -86.7 615.79c-28.39,189.82 -80.71,251.1 -224.19,251.1 -139,0 -170.39,-55.3 -143.48,-242.12l88.18 -624.76 -228.68 0 -86.68 615.79c-43.35,315.38 85.18,434.94 370.66,434.94 286.97,0 405.05,-112.1 449.88,-425.96l89.68 -624.76z"/>
  <path id="1" class="fil0" d="M1556.42 309.39c-32.88,133.02 -170.39,249.6 -310.89,322.84 26.91,-61.28 44.84,-119.57 53.8,-182.34l61.29 -449.88 -221.22 0 -146.47 1046.24 221.22 0 35.87 -251.1c41.85,-16.44 85.18,-34.38 127.04,-53.81l130.03 304.91 230.17 0 -136.01 -304.91c-14.95,-31.38 -34.38,-64.27 -61.28,-92.66 109.1,-76.23 200.27,-182.34 242.12,-339.28l-225.68 0z"/>
  <path id="2" class="fil0" d="M2468.13 288.46l-44.84 0c-95.66,0 -203.27,55.3 -313.88,159.93l0 -139 -171.88 0 -103.14 736.85 221.22 0 62.76 -461.84c112.1,-58.3 179.36,-91.18 246.62,-91.18l53.8 0 49.32 -204.76z"/>
  <polygon id="3" class="fil0" points="3293.17,200.27 3318.59,14.94 2477.1,14.94 2451.69,200.27 2758.09,200.27 2638.52,1046.24 2867.2,1046.24 2985.28,200.27 "/>
  <path id="4" class="fil0" d="M3821.04 871.37c-88.18,10.45 -212.24,16.44 -284.23,16.44 -92.67,0 -144.98,-19.43 -147.97,-124.81l218.47 -16.44c189.82,-13.45 280.99,-61.28 301.92,-204.51 22.42,-156.45 -43.35,-253.59 -315.63,-253.59 -270.53,0 -391.59,77.72 -427.21,372.91 -31.38,266.8 56.55,402.82 345.02,402.82 100.39,0 231.91,-13.45 324.58,-52.31l-14.94 -140.5zm-418.75 -238.4c25.41,-148.97 62.78,-183.09 176.37,-183.09 92.91,-1.5 122.81,2.99 116.83,71.49 -8.96,72.99 -46.34,89.43 -121.32,95.16l-171.88 16.44z"/>
  <path id="5" class="fil0" d="M4602.23 871.37c-83.7,11.95 -179.36,13.44 -233.17,13.44 -127.04,0 -160.17,-28.39 -137.5,-206.25 20.92,-171.89 73.23,-210.75 206.25,-210.75 53.81,0 136.02,1.5 222.7,2.99l29.89 -134.51c-77.72,-34.38 -192.81,-47.84 -282.48,-47.84 -264.8,0 -367.94,104.63 -406.8,379.64 -40.35,283.98 65.77,396.08 329.07,396.08 94.17,0 201.79,-11.97 286.97,-47.84l-14.94 -144.97z"/>
  <path id="6" class="fil0" d="M5106.18 0l-221.22 0 -146.47 1046.24 221.22 0 61.28 -452.87c100.14,-77.72 165.9,-118.08 236.14,-118.08 44.85,0 53.81,16.44 46.34,82.21l-68.75 488.74 219.72 0 77.72 -548.53c19.43,-136.01 -53.8,-209.25 -186.83,-209.25 -95.65,0 -198.79,49.32 -313.86,152.45 14.94,-50.81 29.88,-116.58 38.86,-180.84l35.87 -260.06z"/>
  <path id="7" class="fil0" d="M5643 1046.24l227.18 0 53.81 -384.12c59.79,8.96 127.04,13.45 192.81,13.45 252.59,0 349.75,-58.3 387.11,-328.83 35.87,-257.07 -62.78,-345.26 -336.29,-345.26 -174.87,0 -257.07,1.5 -379.63,13.45l-144.98 1031.3zm303.41 -545.54l46.34 -322.84 168.89 -1.49c104.63,0 136.01,31.38 118.08,153.94 -20.93,140.5 -55.3,170.39 -177.87,170.39l-155.44 0z"/>
  <path id="8" class="fil0" d="M7173.25 288.46l-44.84 0c-95.66,0 -203.27,55.3 -313.88,159.93l0 -139 -171.88 0 -103.14 736.85 221.22 0 62.76 -461.84c112.1,-58.3 179.36,-91.18 246.62,-91.18l53.8 0 49.32 -204.76z"/>
  <path id="9" class="fil0" d="M7609.44 288.46c-271.78,0 -381.89,103.14 -420.74,381.13 -40.35,286.97 72.99,396.08 338.54,396.08 267.54,0 379.14,-100.14 418,-378.14 40.36,-288.47 -67,-399.07 -335.79,-399.07zm-1.5 165.9c112.1,0 136.02,43.35 110.61,215.23 -26.91,182.36 -68.75,230.18 -186.83,230.18 -116.58,0 -137.51,-41.85 -113.59,-212.24 26.89,-191.31 70.24,-233.17 189.81,-233.17z"/>
  <path id="10" class="fil0" d="M8318.15 309.39l-171.88 0 -103.14 736.85 219.72 0 64.27 -464.84c92.67,-80.71 140.5,-106.11 192.81,-106.11 49.32,0 61.28,22.42 52.31,82.21l-67.25 488.74 212.24 0 64.27 -458.85c97.15,-88.18 143.48,-112.1 192.81,-112.1 40.36,0 62.78,16.44 53.8,82.21l-68.74 488.74 219.7 0 76.23 -548.53c17.93,-128.54 -44.84,-209.25 -182.34,-209.25 -97.15,0 -179.36,40.36 -278,137.51 -10.47,-86.68 -73.24,-137.51 -180.86,-137.51 -103.12,0 -189.81,46.34 -295.93,153.95l0 -133.02z"/>
 </g>
</svg>
