<?xml version="1.0" encoding="UTF-8"?>
<!DOCTYPE svg PUBLIC "-//W3C//DTD SVG 1.1//EN" "http://www.w3.org/Graphics/SVG/1.1/DTD/svg11.dtd">
<!-- Creator: CorelDRAW 2019 (64-Bit) -->
<svg xmlns="http://www.w3.org/2000/svg" xml:space="preserve" width="35.4903mm" height="25.9708mm" version="1.1" style="shape-rendering:geometricPrecision; text-rendering:geometricPrecision; image-rendering:optimizeQuality; fill-rule:evenodd; clip-rule:evenodd"
viewBox="0 0 2753.08 2014.63"
 xmlns:xlink="http://www.w3.org/1999/xlink">
 <defs>
  <style type="text/css">
   <![CDATA[
    .fil2 {fill:black}
    .fil1 {fill:red}
    .fil0 {fill:white}
    .fil3 {fill:white;fill-rule:nonzero}
   ]]>
  </style>
 </defs>
 <g id="Слой_x0020_1">
  <metadata id="CorelCorpID_0Corel-Layer"/>
  <g id="_1338866880">
   <g>
    <path class="fil0" d="M341.23 0l1621.53 0 0 1158.91c197.97,0.1 384.46,0.45 587.2,0.45 21.39,0.58 44.68,21.53 46.7,42.47 2.02,21.09 -13.47,42.87 -37.19,50.72l-24.36 8.98c-199.56,38.83 -392.38,106.58 -572.35,200.91l0 159.22 -257.01 0c-136.29,98.59 -260.59,213.33 -369.79,341.3l-15.51 18.18 -1320.45 0 97.73 -89.93c105.6,-97.16 217.61,-187.25 335.11,-269.55l-91.61 0 0 -1621.66z"/>
    <path class="fil1" d="M2525.23 1210.69c-218.13,42.43 -424.51,117.71 -613.83,220.44l0 -220.44 613.83 0zm-836.72 359.58c-144.97,103.24 -276.66,223.94 -391.95,359.07l-1163.74 0c145.35,-133.74 303.21,-254.07 471.63,-359.07l1084.06 0z"/>
    <path class="fil2" d="M393.15 52.02l1518.25 0 0 1518.25 -1518.25 0 0 -1518.25zm1469.28 1437.78c-26.07,12.39 -52.47,22.82 -78.95,31.5l78.95 0 0 -31.5zm-599.21 31.5c-216.93,-59.59 -375.99,-174.67 -483.54,-338.38 134.3,104.22 286.11,162.67 451.58,185.38 3.54,0.67 7.14,1.01 10.75,1.01 32.2,0 58.3,-26.11 58.3,-58.3 0,-28.44 -20.51,-52.73 -48.55,-57.49 -401.8,-72.69 -512.32,-263.87 -643.19,-446.78 107.18,124.8 291.11,257.35 456.97,282.37 3.03,0.46 5.75,0.67 8.83,0.67 32.21,0 58.31,-27 58.31,-58.3 0,-31.3 -24.18,-50.27 -52.96,-58.06 -281.21,-76.25 -438.66,-262.13 -539.04,-491.23 103.56,129.52 297.89,287.82 415.1,298.46 1.71,0 3.56,0.25 5.36,0.25 32.2,0 58.3,-27.03 58.3,-58.3 0,-31.28 -23.47,-57.56 -50.76,-69.4 -278.53,-120.93 -388.34,-313.15 -453.42,-527.04 182.99,235.52 293.29,268.6 387.51,299.34 5.73,1.87 12.03,2.85 18.07,2.85 32.2,0 58.31,-26.1 58.31,-58.3 0,-23.55 -13.96,-43.83 -34.05,-53.04 -129.81,-64.91 -203.44,-95.08 -296.97,-216.02l-206.03 0 0 1420.33 821.12 0zm-104.16 -1420.33c-114.23,691.4 164.6,1244.37 531.4,1253.84 57.09,1.47 114.65,-9.62 171.98,-32.04l0 -365.96c-55.64,43.39 -113.07,66.63 -169.6,65.18 -229.31,-5.93 -358.4,-415.72 -293.23,-921.01l-240.55 0zm289.73 0c-35.55,326.28 10.57,608.18 112.22,759.92 83.07,-170.71 114.16,-447.89 71.4,-759.92l-183.61 0z"/>
   </g>
   <path class="fil3" d="M2111.12 1681.93c11.05,4.38 15.68,5.4 14.91,11.57 -1.29,6.68 -7.72,8.22 -37.54,8.22 -12.85,0 -31.11,0 -40.36,-0.51l-3.6 24.42c21.85,3.09 31.62,4.63 55.79,4.63 36.76,0 58.35,-4.38 62.21,-35.23 2.57,-20.05 -6.43,-30.33 -26.74,-38.3l-31.11 -12.34c-10.02,-3.86 -14.65,-5.91 -13.89,-12.09 1.03,-6.17 6.69,-6.68 25.45,-6.68 17.74,0 33.68,0.51 50.14,0.77l3.6 -24.16c-14.4,-2.83 -39.59,-4.89 -58.61,-5.14 -37.79,-0.26 -53.99,9.25 -56.81,32.65 -2.32,18.76 5.14,31.36 25.96,39.59l30.59 12.6z"/>
   <path id="1" class="fil3" d="M2218.53 1544.65c-7.71,0 -11.31,3.34 -12.08,10.54l-1.8 13.63c-1.03,7.71 2.57,11.82 10.28,11.82l16.15 0c7.72,0 11.32,-3.09 12.34,-10.29l1.8 -13.88c0.78,-7.45 -2.82,-11.83 -10.8,-11.83l-15.89 0zm2.06 182.78l17.69 -126.74 -37.7 0 -17.74 126.74 37.75 0z"/>
   <path id="2" class="fil3" d="M2300.06 1600.7l-29.83 0 -17.73 126.74 38.04 0 10.8 -78.15c16.71,-13.11 28.03,-19.79 39.59,-20.04 8.22,-0.26 10.02,3.08 8.48,15.17l-11.57 83.03 37.75 0 13.37 -94.34c3.6,-23.65 -10.28,-35.99 -31.06,-35.99 -19.02,0 -38.56,10.02 -57.84,28.79l0 -25.2z"/>
   <path id="3" class="fil3" d="M2512.61 1697.36c-14.39,2.06 -30.84,2.31 -40.1,2.31 -21.85,0 -27.55,-4.89 -23.65,-35.47 3.6,-29.57 12.6,-36.25 35.47,-36.25 9.25,0 23.4,0.26 38.31,0.51l5.14 -23.13c-13.37,-5.92 -33.16,-8.23 -48.59,-8.23 -45.54,0 -63.28,18 -69.96,65.3 -6.94,48.84 11.31,68.12 56.6,68.12 16.2,0 34.71,-2.06 49.36,-8.23l-2.58 -24.93z"/>
   <path id="4" class="fil3" d="M2650.75 1697.36c-15.17,1.8 -36.51,2.82 -48.89,2.82 -15.93,0 -24.93,-3.34 -25.44,-21.46l37.58 -2.83c32.64,-2.31 48.33,-10.53 51.93,-35.17 3.86,-26.91 -7.45,-43.62 -54.29,-43.62 -46.54,0 -67.36,13.37 -73.48,64.14 -5.4,45.89 9.73,69.29 59.34,69.29 17.27,0 39.89,-2.32 55.83,-9l-2.57 -24.16zm-72.03 -41c4.37,-25.62 10.8,-31.49 30.33,-31.49 15.99,-0.26 21.12,0.51 20.1,12.3 -1.54,12.56 -7.97,15.38 -20.87,16.37l-29.56 2.83z"/>
   <path class="fil3" d="M2220.92 2010.28l28.09 -199.77 -43.43 0 -54.43 20.27 2.32 29.24 48.06 -12.74c-2.32,7.24 -3.48,14.19 -4.34,21.43l-20.27 141.58 44.01 0z"/>
   <path id="1" class="fil3" d="M2269.37 2008.26c20.8,4.63 40.97,5.79 53.71,5.79 57.66,0 81.11,-19.97 93.61,-103.94 11.58,-79.91 -2.61,-102.78 -58.87,-102.78 -52.07,0 -72.86,17.37 -78.89,68.9 -4.06,32.72 3.18,66.3 49.07,66.3 16.21,0 29.82,-4.05 43.48,-16.21 -7.53,39.67 -17.71,52.7 -50.43,53.56 -18.19,0 -32.62,0 -47.33,-0.58l-4.34 28.96zm49.94 -131.73c2.9,-26.64 10.14,-35.61 34.74,-35.61 26.69,0 28.71,9.56 22.34,54.43 -13.89,11.87 -23.21,15.34 -36.82,15.34 -19.69,0 -23.16,-9.56 -20.27,-34.16z"/>
   <path id="2" class="fil3" d="M2438.46 2008.26c20.8,4.63 40.97,5.79 53.71,5.79 57.66,0 81.11,-19.97 93.61,-103.94 11.58,-79.91 -2.61,-102.78 -58.87,-102.78 -52.07,0 -72.86,17.37 -78.89,68.9 -4.06,32.72 3.18,66.3 49.07,66.3 16.21,0 29.82,-4.05 43.48,-16.21 -7.53,39.67 -17.71,52.7 -50.43,53.56 -18.19,0 -32.62,0 -47.33,-0.58l-4.34 28.96zm49.94 -131.73c2.9,-26.64 10.14,-35.61 34.74,-35.61 26.69,0 28.71,9.56 22.34,54.43 -13.89,11.87 -23.21,15.34 -36.82,15.34 -19.69,0 -23.16,-9.56 -20.27,-34.16z"/>
   <path id="3" class="fil3" d="M2627.95 1843.8c14.82,-0.57 36.53,-1.16 53.04,-1.16 25.76,0 28.95,4.63 27.5,20.27 -1.74,16.5 -6.94,28.37 -30.69,28.37l-37.93 0 -4.06 29.53 39.04 0.58c22.29,0.29 27.5,9.55 24.61,26.06 -2.89,16.5 -13.32,28.95 -43.14,30.4 -17.08,0.87 -30.4,-0.29 -53.27,-1.45l-4.06 32.43c22.29,3.48 44.01,5.79 61.96,5.21 54.43,-0.87 76.73,-23.74 81.65,-59.93 4.06,-28.08 -5.21,-44.58 -29.53,-48.35l0.29 -1.16c24.95,-2.61 35.08,-28.38 36.82,-49.79 2.89,-33.59 -15.34,-48.06 -61.09,-48.06 -15.64,0 -37.93,1.45 -61.09,5.21l-0.05 31.84z"/>
  </g>
 </g>
</svg>
